<svg width="80" height="80" viewBox="0 0 80 80" fill="none" xmlns="http://www.w3.org/2000/svg">
<path d="M13.584 47.9028H28.092V33.3947H13.584V47.9028ZM36.7694 25.5895H13.5834V31.2707H36.7694V25.5895ZM18.1378 29.0551H16.9073V27.8051H18.1378V29.0551ZM20.4316 29.0551H19.2011V27.8051H20.4316V29.0551ZM22.7259 29.0551H21.4954V27.8051H22.7259V29.0551ZM15.7996 43.3483H17.0496V44.5788H15.7996V43.3483ZM15.7996 41.0546H17.0496V42.285H15.7996V41.0546ZM14.0571 64.1625H15.4878V65.4125H14.057L14.0571 64.1625ZM11.3899 64.1625H12.8205V65.4125H11.3898L11.3899 64.1625ZM14.0571 61.9908H15.4878V63.2408H14.057L14.0571 61.9908ZM11.3899 61.9908H12.8205V63.2408H11.3898L11.3899 61.9908ZM48.1427 48.3593L52.4487 46.7614L56.7548 48.3593L52.4487 36.7138L48.1427 48.3593ZM30.5267 47.9028H45.0348V33.3947H30.5267V47.9028ZM32.7423 43.3483H33.9923V44.5788H32.7423V43.3483ZM32.7423 41.0546H33.9923V42.285H32.7423V41.0546ZM56.322 25.5895H38.7927V31.2707H56.322V25.5895ZM43.3466 29.0551H42.1161V27.8051H43.3466V29.0551ZM45.6409 29.0551H44.4104V27.8051H45.6409V29.0551ZM47.9346 29.0551H46.7048V27.8051H47.9346V29.0551ZM71.875 40.1708C71.875 32.6636 65.8565 26.599 64.6594 25.4673V21.5942C64.6589 21.0618 64.4473 20.5514 64.0709 20.175C63.6946 19.7985 63.1842 19.5867 62.6519 19.5861H10.1318C9.59962 19.5869 9.08944 19.7987 8.71322 20.1752C8.33699 20.5516 8.12545 21.0619 8.125 21.5942V57.6195C8.12545 58.1518 8.33699 58.6621 8.71321 59.0385C9.08943 59.415 9.59962 59.6268 10.1318 59.6276H27.381V66.6162H22.6325V67.8662H50.152V66.6162H45.4034V59.6276H62.619C63.16 59.6269 63.6787 59.4116 64.0612 59.029C64.4437 58.6464 64.6589 58.1276 64.6594 57.5866V54.8731C65.8565 53.7414 71.875 47.6769 71.875 40.1708ZM57.6556 40.1708C57.6555 38.8949 58.0337 37.6477 58.7425 36.5868C59.4512 35.5259 60.4587 34.6989 61.6374 34.2106C62.8161 33.7223 64.1132 33.5944 65.3646 33.8433C66.6159 34.0921 67.7654 34.7064 68.6676 35.6086C69.5699 36.5107 70.1843 37.6601 70.4333 38.9115C70.6822 40.1628 70.5545 41.4599 70.0663 42.6387C69.5781 43.8174 68.7512 44.825 67.6904 45.5338C66.6295 46.2427 65.3823 46.621 64.1064 46.621C62.3963 46.619 60.7568 45.9388 59.5475 44.7296C58.3382 43.5204 57.6578 41.8809 57.6556 40.1708ZM10.1318 20.8362H62.652C62.8528 20.8366 63.0454 20.9166 63.1874 21.0587C63.3293 21.2008 63.4092 21.3933 63.4095 21.5942V25.4673C62.2123 26.599 56.1933 32.6636 56.1933 40.1708C56.1933 45.2397 58.9433 49.6547 61.0984 52.3376H9.375V21.5942C9.37514 21.3934 9.45489 21.2008 9.59676 21.0587C9.73863 20.9167 9.93105 20.8366 10.1318 20.8362ZM44.1534 66.6162H28.6309V59.6276H44.1534V66.6162ZM62.619 58.3776H10.1318C9.93103 58.3772 9.73859 58.2971 9.59672 58.155C9.45485 58.0129 9.37511 57.8203 9.375 57.6195V53.5876H62.1651C62.7224 54.2038 63.1643 54.6413 63.4094 54.8731V57.5866C63.4092 57.7962 63.3259 57.9972 63.1777 58.1455C63.0295 58.2937 62.8286 58.3773 62.619 58.3776ZM61.6071 16.2097H60.3339V14.9597H61.6071V16.2097ZM59.2334 16.2097H57.9602V14.9597H59.2334V16.2097ZM61.6071 13.3837H60.3339V12.1337H61.6071V13.3837ZM59.2334 13.3837H57.9602V12.1337H59.2334V13.3837ZM64.6594 44.785H63.4094V43.3117H64.6594V44.785ZM64.6594 42.0372H63.4094V40.5639H64.6594V42.0372ZM64.6594 39.2907H63.4094V37.8173H64.6594V39.2907ZM64.6594 36.5429H63.4094V35.0695H64.6594V36.5429ZM60.5072 66.6162H61.9806V67.8662H60.5072V66.6162ZM57.76 66.6162H59.2334V67.8662H57.76L57.76 66.6162ZM55.0128 66.6162H56.4862V67.8662H55.0128V66.6162ZM52.2656 66.6162H53.739V67.8662H52.2656V66.6162Z" fill="#00FF66" fill-opacity="0.8"/>
</svg>
