<svg width="80" height="80" viewBox="0 0 80 80" fill="none" xmlns="http://www.w3.org/2000/svg">
<g clip-path="url(#clip0_47_116)">
<path d="M70 56.6667V60.0001H3.33333V21.6667C3.33333 21.2247 3.50893 20.8008 3.82149 20.4882C4.13405 20.1757 4.55797 20.0001 5 20.0001H16.6667V16.6667H5C3.67392 16.6667 2.40215 17.1935 1.46447 18.1312C0.526784 19.0689 0 20.3407 0 21.6667L0 65.0001C0 66.3262 0.526784 67.5979 1.46447 68.5356C2.40215 69.4733 3.67392 70.0001 5 70.0001H26.3667L25.25 76.6668H23.3333C22.8913 76.6668 22.4674 76.8423 22.1548 77.1549C21.8423 77.4675 21.6667 77.8914 21.6667 78.3334C21.6667 78.7754 21.8423 79.1994 22.1548 79.5119C22.4674 79.8245 22.8913 80.0001 23.3333 80.0001H50C50.442 80.0001 50.866 79.8245 51.1785 79.5119C51.4911 79.1994 51.6667 78.7754 51.6667 78.3334C51.6667 77.8914 51.4911 77.4675 51.1785 77.1549C50.866 76.8423 50.442 76.6668 50 76.6668H48.0833L46.9667 70.0001H68.3333C69.6594 70.0001 70.9312 69.4733 71.8689 68.5356C72.8065 67.5979 73.3333 66.3262 73.3333 65.0001V56.6667H70ZM36.6667 63.3334C36.9963 63.3334 37.3185 63.4312 37.5926 63.6143C37.8667 63.7974 38.0803 64.0577 38.2065 64.3623C38.3326 64.6668 38.3656 65.0019 38.3013 65.3252C38.237 65.6485 38.0783 65.9455 37.8452 66.1786C37.6121 66.4117 37.3151 66.5704 36.9918 66.6347C36.6685 66.699 36.3334 66.666 36.0289 66.5399C35.7243 66.4137 35.464 66.2001 35.2809 65.926C35.0977 65.652 35 65.3297 35 65.0001C35 64.5581 35.1756 64.1341 35.4882 63.8216C35.8007 63.509 36.2246 63.3334 36.6667 63.3334ZM28.6333 76.6668L29.75 70.0001H43.5833L44.7 76.6668H28.6333Z" fill="#00FF66" fill-opacity="0.8"/>
<path d="M28.3334 10.0001C29.2538 10.0001 30 9.25389 30 8.33341C30 7.41294 29.2538 6.66675 28.3334 6.66675C27.4129 6.66675 26.6667 7.41294 26.6667 8.33341C26.6667 9.25389 27.4129 10.0001 28.3334 10.0001Z" fill="#00FF66" fill-opacity="0.8"/>
<path d="M35 10.0001C35.9205 10.0001 36.6666 9.25389 36.6666 8.33341C36.6666 7.41294 35.9205 6.66675 35 6.66675C34.0795 6.66675 33.3333 7.41294 33.3333 8.33341C33.3333 9.25389 34.0795 10.0001 35 10.0001Z" fill="#00FF66" fill-opacity="0.8"/>
<path d="M41.6667 10.0001C42.5871 10.0001 43.3333 9.25389 43.3333 8.33341C43.3333 7.41294 42.5871 6.66675 41.6667 6.66675C40.7462 6.66675 40 7.41294 40 8.33341C40 9.25389 40.7462 10.0001 41.6667 10.0001Z" fill="#00FF66" fill-opacity="0.8"/>
<path d="M73.3333 0H26.6667C24.8986 0 23.2029 0.702379 21.9526 1.95262C20.7024 3.20286 20 4.89856 20 6.66667V46.6667C20 48.4348 20.7024 50.1305 21.9526 51.3807C23.2029 52.631 24.8986 53.3333 26.6667 53.3333H73.3333C75.1014 53.3333 76.7971 52.631 78.0474 51.3807C79.2976 50.1305 80 48.4348 80 46.6667V6.66667C80 4.89856 79.2976 3.20286 78.0474 1.95262C76.7971 0.702379 75.1014 0 73.3333 0ZM26.6667 3.33333H73.3333C74.2174 3.33333 75.0652 3.68452 75.6904 4.30964C76.3155 4.93477 76.6667 5.78261 76.6667 6.66667V13.3333H23.3333V6.66667C23.3333 5.78261 23.6845 4.93477 24.3096 4.30964C24.9348 3.68452 25.7826 3.33333 26.6667 3.33333ZM73.3333 50H26.6667C25.7826 50 24.9348 49.6488 24.3096 49.0237C23.6845 48.3986 23.3333 47.5507 23.3333 46.6667V16.6667H76.6667V46.6667C76.6667 47.5507 76.3155 48.3986 75.6904 49.0237C75.0652 49.6488 74.2174 50 73.3333 50Z" fill="#00FF66" fill-opacity="0.8"/>
<path d="M65 21.6666C64.1283 21.6723 63.2733 21.9057 62.5197 22.3438C61.7661 22.7819 61.1401 23.4094 60.7038 24.164C60.2675 24.9187 60.0361 25.7743 60.0325 26.6459C60.0289 27.5176 60.2533 28.3751 60.6833 29.1333L56.8 33.6833C56.2267 33.4567 55.6164 33.338 55 33.3333C54.1189 33.3376 53.2552 33.5794 52.5 34.0333L49.7333 31.6666C49.9183 31.1308 50.0085 30.5668 50 30C50 28.6739 49.4732 27.4021 48.5355 26.4644C47.5978 25.5268 46.3261 25 45 25C43.6739 25 42.4021 25.5268 41.4645 26.4644C40.5268 27.4021 40 28.6739 40 30C40.0069 30.7412 40.1837 31.471 40.5167 32.1333L37.15 35.5C36.0858 34.9903 34.8757 34.8735 33.7336 35.1701C32.5916 35.4667 31.5912 36.1576 30.9095 37.1206C30.2277 38.0837 29.9085 39.2568 30.0083 40.4325C30.1082 41.6082 30.6206 42.7107 31.4549 43.5451C32.2892 44.3794 33.3917 44.8918 34.5675 44.9916C35.7432 45.0914 36.9163 44.7723 37.8793 44.0905C38.8424 43.4088 39.5333 42.4084 39.8299 41.2664C40.1265 40.1243 40.0096 38.9142 39.5 37.85L42.9333 34.4166C43.6569 34.7845 44.4628 34.9609 45.2739 34.9288C46.085 34.8967 46.8744 34.6572 47.5667 34.2333L50.3333 36.5666C50.1205 37.1317 50.0077 37.7295 50 38.3333C49.9914 39.1037 50.1609 39.8656 50.4953 40.5596C50.8297 41.2537 51.32 41.8611 51.9278 42.3344C52.5357 42.8077 53.2447 43.1341 53.9996 43.2882C54.7544 43.4423 55.5346 43.4199 56.2794 43.2227C57.0241 43.0256 57.7132 42.659 58.2929 42.1515C58.8726 41.6441 59.3272 41.0096 59.6212 40.2975C59.9153 39.5854 60.0407 38.815 59.9879 38.0464C59.9351 37.2778 59.7054 36.5318 59.3167 35.8666L63.2 31.3166C63.8858 31.5876 64.6231 31.7036 65.359 31.6561C66.095 31.6087 66.8113 31.3991 67.4566 31.0423C68.102 30.6855 68.6605 30.1903 69.092 29.5923C69.5235 28.9943 69.8174 28.3083 69.9527 27.5833C70.0879 26.8584 70.0611 26.1125 69.8742 25.3992C69.6872 24.6858 69.3448 24.0226 68.8715 23.4571C68.3981 22.8917 67.8056 22.4379 67.1363 22.1283C66.4669 21.8188 65.7374 21.6611 65 21.6666ZM35 41.6666C34.558 41.6666 34.134 41.4911 33.8215 41.1785C33.5089 40.8659 33.3333 40.442 33.3333 40C33.3333 39.5579 33.5089 39.134 33.8215 38.8215C34.134 38.5089 34.558 38.3333 35 38.3333C35.4372 38.3352 35.8562 38.5087 36.1667 38.8166C36.3241 38.971 36.4494 39.1551 36.5353 39.3582C36.6211 39.5613 36.6657 39.7795 36.6667 40C36.6667 40.442 36.4911 40.8659 36.1785 41.1785C35.8659 41.4911 35.442 41.6666 35 41.6666ZM43.3333 30C43.3333 29.6703 43.4311 29.3481 43.6142 29.074C43.7973 28.7999 44.0576 28.5863 44.3622 28.4602C44.6667 28.334 45.0018 28.301 45.3251 28.3653C45.6484 28.4296 45.9454 28.5884 46.1785 28.8215C46.4116 29.0546 46.5703 29.3515 46.6346 29.6748C46.6989 29.9981 46.6659 30.3332 46.5398 30.6378C46.4136 30.9423 46.2 31.2026 45.9259 31.3858C45.6519 31.5689 45.3296 31.6666 45 31.6666C44.558 31.6666 44.134 31.491 43.8215 31.1785C43.5089 30.8659 43.3333 30.442 43.3333 30ZM55 40C54.6704 40 54.3481 39.9022 54.074 39.7191C53.8 39.536 53.5863 39.2757 53.4602 38.9711C53.3341 38.6666 53.301 38.3315 53.3654 38.0082C53.4297 37.6849 53.5884 37.3879 53.8215 37.1548C54.0546 36.9217 54.3515 36.763 54.6748 36.6987C54.9981 36.6344 55.3333 36.6674 55.6378 36.7935C55.9423 36.9197 56.2026 37.1333 56.3858 37.4074C56.5689 37.6814 56.6667 38.0037 56.6667 38.3333C56.6667 38.7753 56.4911 39.1993 56.1785 39.5118C55.8659 39.8244 55.442 40 55 40ZM65 28.3333C64.6704 28.3333 64.3481 28.2356 64.074 28.0524C63.8 27.8693 63.5863 27.609 63.4602 27.3044C63.334 26.9999 63.301 26.6648 63.3653 26.3415C63.4297 26.0182 63.5884 25.7212 63.8215 25.4881C64.0546 25.255 64.3515 25.0963 64.6748 25.032C64.9981 24.9677 65.3333 25.0007 65.6378 25.1268C65.9423 25.253 66.2026 25.4666 66.3858 25.7407C66.5689 26.0148 66.6667 26.337 66.6667 26.6666C66.6667 27.1087 66.4911 27.5326 66.1785 27.8452C65.8659 28.1577 65.442 28.3333 65 28.3333Z" fill="#00FF66" fill-opacity="0.8"/>
</g>
<defs>
<clipPath id="clip0_47_116">
<rect width="80" height="80" fill="white"/>
</clipPath>
</defs>
</svg>
