<svg width="236.390076" height="144.521973" viewBox="0 0 236.39 144.522" fill="none" xmlns="http://www.w3.org/2000/svg" xmlns:xlink="http://www.w3.org/1999/xlink">
	<desc>
			Created with Pixso.
	</desc>
	<defs/>
	<path id="Union" d="M0 35.0623C0 37.9609 1.87565 40.3455 4.27996 40.6345C4.39288 40.6306 4.50521 40.614 4.61467 40.5845C4.80756 40.5327 4.98742 40.4426 5.14311 40.3198C5.29881 40.197 5.42704 40.0442 5.51986 39.8706C5.61267 39.697 5.66811 39.5066 5.68273 39.3108C5.69735 39.1152 5.67085 38.9185 5.60487 38.7329C5.53887 38.5474 5.43481 38.377 5.2991 38.2324C5.20905 38.1362 5.10633 38.053 4.99393 37.9844C4.96817 37.9685 4.94598 37.9482 4.92825 37.9253C3.84023 37.3633 3.11207 36.3376 3.11207 35.1655C3.11207 33.3896 4.78403 31.95 6.8465 31.95C7.03938 31.95 7.22882 31.9624 7.41381 31.9868C6.30711 31.0164 5.60169 29.5479 5.60169 27.9043C5.60169 24.9824 7.83098 22.6138 10.5809 22.6138C11.0557 22.6138 11.515 22.6843 11.9499 22.8162C11.8862 22.4058 11.8543 21.9854 11.8543 21.5591C11.8543 19.4167 12.6592 17.1265 14.2685 15.1965C17.4834 11.3416 22.6913 10.386 25.9007 13.0625C26.0914 13.2217 26.2708 13.3899 26.4388 13.5667C27.1511 7.78882 31.9944 3.31909 37.8631 3.31909C44.2224 3.31909 49.3776 8.56714 49.3776 15.041C49.3776 15.3809 49.3634 15.7173 49.3356 16.0496C52.5569 13.4243 56.2089 12.5483 58.7999 14.146C60.7265 15.334 61.6944 17.6602 61.6944 20.4431C61.6944 20.9817 61.6582 21.5374 61.5856 22.1052C64.2314 19.4714 68.5082 18.9302 71.9196 21.0337C74.5452 22.6528 76.0011 25.4333 76.0011 28.2456C76.0011 28.7852 75.9476 29.3257 75.8384 29.8594C76.7257 28.9741 77.9741 28.4229 79.3569 28.4229C82.0496 28.4229 84.2324 30.5127 84.2324 33.0908C84.2324 35.6689 82.4645 37.5515 79.7718 37.5515L71.955 37.5515L71.9552 37.5518L27.3399 37.5518C26.6905 35.6221 24.8665 34.2322 22.7179 34.2322C20.0252 34.2322 17.8424 36.415 17.8424 39.1077C17.8424 41.8003 20.0252 43.9832 22.7179 43.9832C24.7887 43.9832 26.5579 42.6921 27.2647 40.8713L77.0981 40.8713L77.0987 40.8713L81.2001 40.8713C84.9596 40.0554 87.5519 36.9282 87.5519 33.1951C87.5519 28.8408 83.7435 25.3113 79.0456 25.3113C78.7558 25.3113 78.4693 25.3247 78.1869 25.3508C78.0776 22.3428 76.3652 19.376 73.4247 17.6782C70.439 15.9543 66.9531 15.9814 64.2767 17.4563C63.8164 14.8792 62.1907 12.4563 59.6435 10.9856C57.1309 9.53491 54.264 9.32422 51.8235 10.1729C50.5832 4.37817 44.8973 0 38.0705 0C31.6296 0 26.2043 3.89722 24.5699 9.20435C21.8389 6.76636 16.4286 8.06494 12.3367 12.1892C9.84239 14.7034 8.40192 17.6992 8.21452 20.2693C6.19433 20.374 4.06921 21.9951 2.95135 24.5059C2.46095 25.6074 2.22752 26.7383 2.22752 27.7935C2.22752 28.6079 2.36654 29.3772 2.63377 30.053C1.07189 30.9734 0 32.8708 0 35.0623ZM11.9428 26.3257C13.4147 24.8015 15.6449 24.4497 17.4717 25.2891L24.0063 18.5222C24.27 18.2493 24.6047 18.0862 24.9531 18.0339L24.9531 18.0159L25.1541 18.0161C25.1867 18.0151 25.2192 18.0154 25.2517 18.0164L56.6494 18.0642C57.5646 18.0654 58.3077 18.8086 58.3091 19.7239C58.3105 20.6389 57.5697 21.3799 56.6544 21.3784L28.1474 21.335C28.1833 21.3923 28.2197 21.4492 28.2566 21.5059C28.1924 21.4495 28.1289 21.3923 28.066 21.335L25.9081 21.3315L19.8389 27.6165C20.6945 29.3992 20.4076 31.5974 18.9571 33.0994C17.0923 35.0305 14.0104 35.0796 12.0735 33.209C10.1365 31.3386 10.078 28.2568 11.9428 26.3257ZM42.2776 28.4229C41.6282 26.4932 39.8042 25.1033 37.6556 25.1033C34.963 25.1033 32.7801 27.2861 32.7801 29.979C32.7801 32.6716 34.963 34.8545 37.6556 34.8545C39.7264 34.8545 41.4957 33.5635 42.2025 31.7424L67.4274 31.7424C68.3441 31.7424 69.0872 30.9993 69.0872 30.0825C69.0872 29.166 68.3441 28.4229 67.4274 28.4229L42.2776 28.4229ZM13.6979 28.0923C14.6303 27.1267 16.1712 27.1023 17.1397 28.0376C18.1082 28.9727 18.1374 30.5137 17.205 31.4792C16.2726 32.4446 14.7317 32.4692 13.7632 31.5339C12.7947 30.5986 12.7655 29.0579 13.6979 28.0923ZM40.0416 30.0308C40.0416 28.6843 38.9501 27.593 37.6038 27.593C36.2575 27.593 35.166 28.6843 35.166 30.0308C35.166 31.377 36.2575 32.4685 37.6038 32.4685C38.9501 32.4685 40.0416 31.377 40.0416 30.0308ZM22.6661 36.7219C24.0124 36.7219 25.1038 37.8132 25.1038 39.1597C25.1038 40.5059 24.0124 41.5974 22.6661 41.5974C21.3197 41.5974 20.2283 40.5059 20.2283 39.1597C20.2283 37.8132 21.3197 36.7219 22.6661 36.7219ZM62.5518 43.7756C60.4032 43.7756 58.5793 45.1655 57.9299 47.0952L11.2033 47.0952C10.2867 47.0952 9.54357 47.8384 9.54357 48.7551C9.54357 49.6716 10.2867 50.4148 11.2033 50.4148L58.005 50.4148C58.7118 52.2358 60.4811 53.5269 62.5518 53.5269C65.2445 53.5269 67.4274 51.344 67.4274 48.6514C67.4274 45.9585 65.2445 43.7756 62.5518 43.7756ZM62.6037 46.2654C61.2574 46.2654 60.166 47.3567 60.166 48.7031C60.166 50.0496 61.2574 51.1409 62.6037 51.1409C63.9501 51.1409 65.0415 50.0496 65.0415 48.7031C65.0415 47.3567 63.9501 46.2654 62.6037 46.2654Z" clip-rule="evenodd" fill="#00FF66" fill-opacity="0.800000" fill-rule="evenodd"/>
</svg>
