<svg width="80" height="80" viewBox="0 0 80 80" fill="none" xmlns="http://www.w3.org/2000/svg">
<g clip-path="url(#clip0_47_113)">
<path fill-rule="evenodd" clip-rule="evenodd" d="M33.0131 14.1905C33.0896 14.1142 33.1805 14.0539 33.2804 14.0129C33.3804 13.972 33.4874 13.9512 33.5955 13.9517C33.8111 13.952 34.0179 14.0379 34.1703 14.1905L37.288 17.306C37.5228 17.5401 37.8409 17.6715 38.1725 17.6716C38.5046 17.67 38.8226 17.5369 39.0569 17.3016L45.8377 10.4552C45.985 10.3019 46.1914 10.2171 46.4052 10.2156H46.4125C46.6262 10.2156 46.8327 10.2997 46.9873 10.453C47.3044 10.7692 47.3044 11.2844 46.9873 11.605C45.9701 12.6332 44.9531 13.6628 43.9359 14.6939C42.2408 16.4142 40.4866 18.1919 38.7545 19.9285C38.678 20.0047 38.5872 20.065 38.4873 20.106C38.3874 20.147 38.2803 20.1678 38.1723 20.1672C38.0654 20.1678 37.9595 20.1469 37.8608 20.1059C37.7621 20.0649 37.6725 20.0046 37.5975 19.9285L33.0131 15.3469C32.6962 15.0285 32.6962 14.5097 33.0131 14.1905ZM35.8287 21.6952C36.1363 22.0032 36.5017 22.2475 36.9039 22.4141C37.3061 22.5807 37.7372 22.6662 38.1725 22.6658C39.0539 22.6667 39.8995 22.3175 40.5236 21.6952C42.2631 19.955 44.0172 18.1721 45.7198 16.4489C46.7295 15.4208 47.7467 14.3911 48.7639 13.3644C50.0464 12.0672 50.0389 9.96581 48.7492 8.67971C48.1227 8.05831 47.2972 7.71565 46.4128 7.71565H46.3981C45.5137 7.71862 44.6808 8.06721 44.0617 8.69518L38.1653 14.6499L35.9395 12.4239C35.313 11.7974 34.4802 11.4517 33.5958 11.4517C32.7039 11.4517 31.8711 11.7974 31.2445 12.4239C29.9547 13.716 29.9547 15.8225 31.2445 17.1146L35.8287 21.6952ZM40.0003 2.50159C33.0058 2.50159 27.3083 8.19377 27.3083 15.1921C27.3083 22.1889 33.0056 27.8825 40.0003 27.8825C46.995 27.8825 52.6923 22.1888 52.6923 15.1921C52.6923 8.19393 46.995 2.50159 40.0003 2.50159ZM40.0003 30.3827C48.3731 30.3827 55.1908 23.5672 55.1908 15.1921C55.1908 6.81549 48.3731 0.00158691 40.0003 0.00158691C31.62 0.00158691 24.8097 6.81565 24.8097 15.1921C24.8098 23.5672 31.6202 30.3827 40.0003 30.3827ZM61.5737 53.4014V48.436C61.5737 47.7469 61.0136 47.186 60.3208 47.186H50.0095C48.0269 47.186 46.4202 48.7986 46.4202 50.7799V77.5016H33.5808V50.7799C33.5808 48.7986 31.9741 47.186 29.9914 47.186H19.6802C18.9873 47.186 18.4272 47.7469 18.4272 48.436V53.4014L4.83594 41.8592L18.4272 30.3186V35.2827C18.4272 35.9733 18.9873 36.5327 19.6802 36.5327H60.3209C61.0137 36.5327 61.5739 35.9733 61.5739 35.2827V30.3186L75.165 41.8592L61.5737 53.4014ZM77.1034 40.2252C77.5898 40.6394 77.8627 41.2202 77.8627 41.8592C77.8627 42.4997 77.59 43.0799 77.1034 43.4941L62.6056 55.8042C61.9644 56.3519 61.0873 56.4705 60.3208 56.1153C59.5469 55.7608 59.0751 55.0156 59.0751 54.1702V49.686H50.0095C49.4052 49.686 48.9187 50.1769 48.9187 50.7797V78.7516C48.9187 79.4422 48.3586 80.0016 47.6658 80.0016H32.3352C31.6423 80.0016 31.0822 79.4422 31.0822 78.7516V50.7799C31.0822 50.1769 30.5958 49.6861 29.9914 49.6861H20.9256V54.1703C20.9256 55.0158 20.4466 55.761 19.68 56.1155C18.9134 56.4708 18.0364 56.3521 17.3952 55.8044L2.89734 43.4942C2.41093 43.08 2.13812 42.4999 2.13812 41.8594C2.13812 41.2203 2.41078 40.6396 2.89734 40.2253L17.3952 27.916C18.0364 27.3677 18.9134 27.2489 19.68 27.6035C20.4466 27.9594 20.9256 28.7046 20.9256 29.55V34.0327H59.0753V29.55C59.0753 28.7046 59.547 27.9594 60.3209 27.6035C61.0875 27.2489 61.9645 27.3691 62.6058 27.916L77.1034 40.2252Z" fill="#00FF66" fill-opacity="0.8"/>
</g>
<defs>
<clipPath id="clip0_47_113">
<rect width="80" height="80" fill="white"/>
</clipPath>
</defs>
</svg>
