<svg width="75" height="60" viewBox="0 0 75 60" fill="none" xmlns="http://www.w3.org/2000/svg">
<path fill-rule="evenodd" clip-rule="evenodd" d="M43.5357 7.62963C42.6055 3.28367 38.341 -4.19617e-05 33.221 -4.19617e-05C28.3903 -4.19617e-05 24.3213 2.92296 23.0955 6.90329C21.0472 5.07479 16.9895 6.04869 13.9206 9.14187C12.0498 11.0275 10.9695 13.2743 10.8289 15.202C9.31378 15.2805 7.71995 16.4963 6.88155 18.3794C6.22992 19.8429 6.18323 21.3759 6.64337 22.5397C5.47196 23.23 4.66804 24.6531 4.66804 26.2966C4.66804 28.4709 6.07503 30.2594 7.87851 30.4759C7.96304 30.4729 8.04714 30.4604 8.12908 30.4384C8.27375 30.3996 8.40864 30.332 8.52542 30.2399C8.64219 30.1478 8.73836 30.0331 8.80797 29.903C8.87759 29.7728 8.91916 29.6299 8.93013 29.4831C8.9411 29.3364 8.92122 29.1889 8.87173 29.0497C8.82224 28.9106 8.74419 28.7828 8.64241 28.6743C8.57487 28.6022 8.49783 28.5397 8.41353 28.4882C8.39432 28.4765 8.37777 28.4615 8.36452 28.4443C7.54835 28.0228 7.00211 27.2535 7.00211 26.3744C7.00211 25.0424 8.25609 23.9626 9.80294 23.9626C9.94759 23.9626 10.0897 23.972 10.2284 23.9902C9.3984 23.2625 8.86933 22.1611 8.86933 20.9284C8.86933 18.737 10.5413 16.9605 12.6038 16.9605C12.9598 16.9605 13.3043 17.0135 13.6305 17.1124C13.3425 15.2572 13.9223 13.1329 15.3694 11.3977C17.7806 8.50636 21.6866 7.78976 24.0936 9.7971C24.2366 9.91639 24.3712 10.0426 24.4972 10.1751C25.0314 5.84176 28.6639 2.48955 33.0654 2.48955C37.8349 2.48955 41.7013 6.42564 41.7013 11.281C41.7013 11.5358 41.6906 11.7881 41.6698 12.0374C44.0857 10.0684 46.8247 9.41139 48.768 10.6097C50.4926 11.6731 51.193 13.9527 50.8572 16.5792C52.8416 14.6037 56.0492 14.1978 58.6077 15.7755C60.9547 17.2227 62.0555 19.9074 61.5468 22.3948C62.2123 21.7307 63.1486 21.3173 64.1857 21.3173C66.2052 21.3173 67.8424 22.8848 67.8424 24.8184C67.8424 26.7519 66.5164 28.1638 64.4969 28.1638H58.6344L58.6345 28.1639H25.1729C24.6858 26.7166 23.3179 25.6742 21.7064 25.6742C19.6869 25.6742 18.0498 27.3113 18.0498 29.3309C18.0498 31.3504 19.6869 32.9875 21.7064 32.9875C23.2595 32.9875 24.5864 32.0193 25.1165 30.6535H62.492L62.4921 30.6535H65.4012C65.5121 30.6535 65.6233 30.6422 65.7311 30.616C68.4624 29.9504 70.3319 27.6419 70.3319 24.8962C70.3319 21.6306 67.4757 18.9834 63.9523 18.9834C63.7349 18.9834 63.52 18.9934 63.3082 19.0131C63.2263 16.7571 61.9419 14.5319 59.7365 13.2586C57.4973 11.9657 54.8828 11.986 52.8756 13.0922C52.5303 11.1594 51.3111 9.34211 49.4007 8.23916C47.5162 7.15116 45.3661 6.99309 43.5357 7.62963ZM25.7179 16.0014L24.0991 15.999L19.5472 20.7126C20.1889 22.0497 19.9738 23.6983 18.8859 24.8249C17.4873 26.2731 15.1759 26.31 13.7232 24.9071C12.2704 23.5042 12.2266 21.1929 13.6252 19.7446C14.7291 18.6015 16.4016 18.3377 17.7718 18.9671L22.6727 13.892C22.8705 13.6872 23.1215 13.5649 23.3829 13.5257L23.3828 13.5122L23.5336 13.5124C23.558 13.5117 23.5824 13.5118 23.6068 13.5125L47.1551 13.5484C47.8415 13.5494 48.3988 14.1067 48.3998 14.7931C48.4009 15.4795 47.8453 16.0351 47.1588 16.0341L25.7787 16.0015C25.8055 16.0443 25.8327 16.0869 25.8602 16.1292C25.8123 16.087 25.7649 16.0444 25.7179 16.0014ZM21.6675 31.1981C20.6578 31.1981 19.8392 30.3795 19.8392 29.3698C19.8392 28.36 20.6578 27.5414 21.6675 27.5414C22.6773 27.5414 23.4958 28.36 23.4958 29.3698C23.4958 30.3795 22.6773 31.1981 21.6675 31.1981ZM14.9904 23.6508C15.7168 24.3523 16.8725 24.3338 17.5718 23.6097C18.2711 22.8856 18.2492 21.7299 17.5228 21.0285C16.7965 20.327 15.6407 20.3454 14.9414 21.0696C14.2422 21.7937 14.2641 22.9494 14.9904 23.6508ZM32.9098 26.141C30.8902 26.141 29.2531 24.5039 29.2531 22.4844C29.2531 20.4649 30.8902 18.8277 32.9098 18.8277C34.5212 18.8277 35.8892 19.8701 36.3762 21.3173H55.2386C55.9261 21.3173 56.4834 21.8747 56.4834 22.5622C56.4834 23.2497 55.9261 23.807 55.2386 23.807H36.3199C35.7898 25.1728 34.4628 26.141 32.9098 26.141ZM32.8709 24.3516C31.8611 24.3516 31.0425 23.533 31.0425 22.5232C31.0425 21.5135 31.8611 20.6949 32.8709 20.6949C33.8806 20.6949 34.6992 21.5135 34.6992 22.5232C34.6992 23.533 33.8806 24.3516 32.8709 24.3516ZM51.582 40.1451C53.6015 40.1451 55.2386 38.508 55.2386 36.4885C55.2386 34.469 53.6015 32.8319 51.582 32.8319C49.9705 32.8319 48.6026 33.8742 48.1155 35.3215H13.0706C12.3831 35.3215 11.8257 35.8788 11.8257 36.5663C11.8257 37.2538 12.3831 37.8111 13.0706 37.8111H48.1719C48.702 39.1769 50.0289 40.1451 51.582 40.1451ZM51.6209 38.3557C52.6307 38.3557 53.4492 37.5372 53.4492 36.5274C53.4492 35.5176 52.6307 34.6991 51.6209 34.6991C50.6112 34.6991 49.7926 35.5176 49.7926 36.5274C49.7926 37.5372 50.6112 38.3557 51.6209 38.3557Z" fill="#00FF66" fill-opacity="0.8"/>
<path d="M3.99335 56.2572H1.78469L1.79836 54.411H3.99335C4.44921 54.411 4.83442 54.3016 5.14896 54.0828C5.46807 53.8639 5.70968 53.538 5.87379 53.1049C6.04246 52.6673 6.12679 52.1294 6.12679 51.4912V51.0604C6.12679 50.5817 6.07893 50.1623 5.98319 49.8022C5.89202 49.4375 5.75526 49.1343 5.57292 48.8927C5.39057 48.6466 5.16264 48.4619 4.88912 48.3389C4.62016 48.2158 4.31017 48.1542 3.95916 48.1542H1.74366V46.3012H3.95916C4.63384 46.3012 5.25153 46.4174 5.81225 46.6499C6.37752 46.8778 6.86529 47.206 7.27557 47.6346C7.69041 48.0585 8.00951 48.5622 8.23288 49.1457C8.46082 49.7247 8.57478 50.3675 8.57478 51.074V51.4912C8.57478 52.1932 8.46082 52.836 8.23288 53.4195C8.00951 54.003 7.69269 54.5067 7.28241 54.9307C6.87213 55.3546 6.38663 55.6828 5.82592 55.9153C5.26977 56.1433 4.65891 56.2572 3.99335 56.2572ZM3.15912 46.3012V56.2572H0.758991V46.3012H3.15912ZM17.0979 54.411V56.2572H11.7916V54.411H17.0979ZM12.6464 46.3012V56.2572H10.2463V46.3012H12.6464ZM16.4141 50.2535V52.0382H11.7916V50.2535H16.4141ZM17.1184 46.3012V48.1542H11.7916V46.3012H17.1184ZM22.2704 53.9118L24.3423 46.3012H27.0296L23.6722 56.2572H21.9353L22.2704 53.9118ZM20.39 46.3012L22.4619 53.9118L22.8106 56.2572H21.0532L17.7163 46.3012H20.39ZM33.0022 46.3012V56.2572H30.6021V46.3012H33.0022ZM35.9972 46.3012V48.1542H27.6754V46.3012H35.9972ZM37.4362 46.3012H41.3543C42.1202 46.3012 42.7858 46.4151 43.351 46.643C43.9163 46.871 44.3516 47.2083 44.6571 47.6551C44.9671 48.1018 45.1221 48.6534 45.1221 49.3099C45.1221 49.8797 45.0332 50.3561 44.8554 50.739C44.6776 51.1219 44.4291 51.4387 44.11 51.6895C43.7955 51.9356 43.4285 52.1385 43.0091 52.298L42.2228 52.7425H38.9337L38.92 50.8894H41.3543C41.6598 50.8894 41.9128 50.8347 42.1134 50.7253C42.3139 50.6159 42.4644 50.4609 42.5647 50.2603C42.6695 50.0552 42.7219 49.8113 42.7219 49.5287C42.7219 49.2415 42.6695 48.9953 42.5647 48.7902C42.4598 48.585 42.3048 48.4278 42.0997 48.3183C41.8991 48.2089 41.6506 48.1542 41.3543 48.1542H39.8363V56.2572H37.4362V46.3012ZM42.886 56.2572L40.6842 51.8536L43.2279 51.8399L45.4571 56.1547V56.2572H42.886ZM49.5424 46.3012V56.2572H47.1491V46.3012H49.5424ZM55.4192 53.9118L57.4911 46.3012H60.1784L56.821 56.2572H55.0841L55.4192 53.9118ZM53.5388 46.3012L55.6107 53.9118L55.9594 56.2572H54.202L50.8651 46.3012H53.5388ZM63.8808 46.3012V56.2572H61.4875V46.3012H63.8808ZM70.332 48.3936L67.9045 56.2572H65.3266L68.9849 46.3012H70.6192L70.332 48.3936ZM72.3423 56.2572L69.908 48.3936L69.5935 46.3012H71.2483L74.9271 56.2572H72.3423ZM72.2466 52.5442V54.3973H67.1387V52.5442H72.2466Z" fill="#00FF66" fill-opacity="0.8"/>
</svg>
