<svg width="81" height="76" viewBox="0 0 81 76" fill="none" xmlns="http://www.w3.org/2000/svg">
<path d="M27.4871 6.7444C30.0055 5.38112 32.7458 4.42006 35.5971 3.90016C35.7547 3.87145 35.9047 3.81377 36.0386 3.73041C36.1725 3.64705 36.2877 3.53963 36.3776 3.41431C36.4674 3.28898 36.5302 3.14819 36.5623 2.99999C36.5944 2.85179 36.5953 2.69908 36.5647 2.55058C36.535 2.40192 36.4744 2.26026 36.3863 2.13378C36.2983 2.0073 36.1845 1.89849 36.0517 1.81361C35.9188 1.72873 35.7694 1.66947 35.6122 1.63923C35.4549 1.609 35.2928 1.60838 35.1353 1.63743C32.0196 2.20631 29.0251 3.25643 26.2727 4.74537C26.0049 4.90346 25.8124 5.15309 25.7356 5.44197C25.6588 5.73084 25.7036 6.03653 25.8606 6.29498C26.0176 6.55342 26.2746 6.74456 26.5778 6.82834C26.881 6.91212 27.2069 6.88204 27.4871 6.7444ZM40.2361 3.45452C40.4621 3.48561 46.8605 3.08603 53.6339 6.7444C53.7732 6.81955 53.9268 6.86812 54.0859 6.88733C54.2451 6.90653 54.4067 6.896 54.5616 6.85633C54.7165 6.81666 54.8615 6.74863 54.9885 6.65612C55.1155 6.56361 55.2218 6.44844 55.3016 6.31719C55.3813 6.18593 55.4329 6.04115 55.4532 5.89112C55.4736 5.7411 55.4624 5.58876 55.4203 5.4428C55.3783 5.29684 55.3061 5.16013 55.2079 5.04046C55.1098 4.9208 54.9876 4.82052 54.8483 4.74537C47.6058 0.838277 41.6424 1.32767 40.2056 1.15149C40.0451 1.1524 39.8865 1.18308 39.7386 1.24179C39.5907 1.30049 39.4566 1.38608 39.3438 1.49365C39.1161 1.71089 38.9892 2.00451 38.9912 2.30991C38.9931 2.61531 39.1237 2.90748 39.3542 3.12213C39.5847 3.33679 39.8962 3.45635 40.2202 3.45452H40.2361ZM67.3273 54.9342C67.0354 54.8021 66.6999 54.7845 66.3942 54.885C66.0886 54.9856 65.8376 55.1962 65.6963 55.4708C64.1719 58.4507 62.4304 61.3275 60.4843 64.0806C60.3049 64.335 60.2401 64.6462 60.3042 64.9456C60.3682 65.245 60.5558 65.5082 60.8257 65.6772C61.0957 65.8463 61.4258 65.9073 61.7435 65.847C62.0611 65.7866 62.3404 65.6098 62.5197 65.3554C64.5271 62.5146 66.3233 59.5462 67.8954 56.4714C68.0362 56.1967 68.0554 55.8806 67.9489 55.5925C67.8424 55.3044 67.6188 55.0669 67.3273 54.9342ZM65.5509 20.0456C65.7411 20.2929 66.0278 20.459 66.3479 20.5071C66.6679 20.5553 66.9952 20.4816 67.2577 20.3023C67.5201 20.1231 67.6963 19.8529 67.7474 19.5512C67.7985 19.2495 67.7203 18.941 67.5301 18.6937C61.4702 10.8242 51.5826 5.72531 40.5794 5.72531C29.8549 5.72531 19.7241 10.6803 13.4785 18.9792C13.291 19.2281 13.2161 19.537 13.2703 19.838C13.3245 20.1389 13.5033 20.4072 13.7674 20.5839C14.0315 20.7606 14.3592 20.8311 14.6785 20.78C14.9978 20.729 15.2825 20.5605 15.4699 20.3116C21.2623 12.6206 30.649 8.02834 40.5831 8.02834C50.7383 8.02834 59.9174 12.7265 65.5509 20.0456Z" fill="#00FF66" fill-opacity="0.8"/>
<path d="M12.264 33.827C12.5446 33.9792 12.8779 34.0202 13.1906 33.941C13.5033 33.8617 13.7698 33.6687 13.9317 33.4044C14.7441 32.0778 15.4589 30.5912 16.3996 28.2744C17.4111 25.7858 18.8541 23.4728 20.6696 21.4298C20.8632 21.1939 20.9523 20.8965 20.9182 20.6001C20.8841 20.3037 20.7294 20.0312 20.4867 19.84C20.244 19.6487 19.932 19.5536 19.6164 19.5746C19.3008 19.5955 19.0061 19.7309 18.7942 19.9524C16.8057 22.1907 15.2252 24.7247 14.1174 27.451C13.2255 29.6481 12.5584 31.0403 11.8144 32.2551C11.7343 32.3862 11.6824 32.5308 11.6616 32.6807C11.6409 32.8306 11.6517 32.9829 11.6934 33.1289C11.7352 33.2749 11.8071 33.4117 11.905 33.5315C12.0029 33.6512 12.1249 33.7517 12.264 33.827ZM22.4021 16.5554C22.2745 16.6508 22.1684 16.7694 22.0901 16.904C22.0118 17.0387 21.9629 17.1867 21.9462 17.3394C21.9295 17.4922 21.9453 17.6465 21.9929 17.7934C22.0404 17.9402 22.1186 18.0767 22.2229 18.1946C22.3272 18.3126 22.4555 18.4097 22.6002 18.4802C22.7449 18.5508 22.9031 18.5933 23.0655 18.6054C23.2279 18.6175 23.3912 18.5988 23.5459 18.5505C23.7005 18.5022 23.8433 18.4252 23.9659 18.3241C27.5676 15.4833 31.916 13.6115 36.5525 12.9062C36.8722 12.8579 37.1585 12.6918 37.3484 12.4446C37.5383 12.1974 37.6163 11.8892 37.5653 11.5878C37.5413 11.4378 37.4858 11.2938 37.4021 11.1643C37.3184 11.0347 37.2081 10.9222 37.0778 10.8332C36.9475 10.7443 36.7997 10.6806 36.643 10.6461C36.4863 10.6115 36.3238 10.6068 36.1652 10.632C31.1193 11.3931 26.3606 13.4417 22.4021 16.5554ZM41.2574 10.3084C40.583 10.2969 40.0235 10.7967 40.0076 11.4323C39.9917 12.0679 40.5256 12.5953 41.2 12.6115C45.8943 12.7162 50.47 14.0217 54.4377 16.3884C54.5733 16.4692 54.7244 16.5241 54.8825 16.5499C55.0406 16.5757 55.2025 16.5718 55.359 16.5386C55.5155 16.5054 55.6635 16.4435 55.7947 16.3564C55.9258 16.2693 56.0374 16.1587 56.1231 16.0309C56.2089 15.9031 56.2671 15.7606 56.2945 15.6117C56.3218 15.4627 56.3177 15.3101 56.2825 15.1626C56.2473 15.0151 56.1816 14.8755 56.0891 14.752C55.9967 14.6284 55.8794 14.5232 55.7438 14.4424C51.4019 11.8521 46.3945 10.4232 41.2574 10.3084ZM66.9974 30.8837C67.6437 30.7029 68.0114 30.0615 67.8208 29.4524C66.3662 24.8068 63.5898 20.6253 59.7927 17.3615C59.5539 17.155 59.2378 17.0464 58.9141 17.0596C58.5903 17.0728 58.2854 17.2066 58.0663 17.4317C57.8473 17.6568 57.7321 17.9547 57.7461 18.2598C57.76 18.5649 57.9021 18.8523 58.1409 19.0588C61.6112 22.0406 64.1486 25.8614 65.4775 30.1064C65.6718 30.7202 66.3584 31.0633 66.9961 30.8837H66.9974ZM62.2961 51.5384C60.1995 55.8773 57.9246 59.6186 55.139 63.315C54.9602 63.5641 54.892 63.8693 54.9489 64.1653C55.0058 64.4613 55.1833 64.7245 55.4435 64.8987C55.7037 65.0729 56.0258 65.1443 56.3411 65.0975C56.6564 65.0507 56.9397 64.8895 57.1305 64.6484C60.0089 60.8311 62.3571 56.9678 64.5196 52.4919C64.6453 52.2152 64.6511 51.9032 64.5357 51.6226C64.4204 51.342 64.193 51.1151 63.9024 50.9905C63.6118 50.8659 63.281 50.8535 62.9808 50.9559C62.6805 51.0583 62.4348 51.2674 62.2961 51.5384ZM49.5544 73.4103C50.8616 72.1264 52.9545 69.7738 54.1421 68.3724C54.2422 68.2542 54.3166 68.1186 54.3611 67.9733C54.4056 67.8281 54.4194 67.6759 54.4015 67.5256C54.3836 67.3753 54.3345 67.2298 54.257 67.0974C54.1795 66.965 54.075 66.8483 53.9496 66.754C53.8243 66.6596 53.6804 66.5894 53.5262 66.5475C53.3721 66.5055 53.2107 66.4926 53.0512 66.5095C52.8917 66.5263 52.7374 66.5726 52.5969 66.6456C52.4564 66.7187 52.3326 66.8172 52.2325 66.9353C51.1378 68.2273 49.0107 70.6236 47.7938 71.8143C47.5787 72.036 47.464 72.3281 47.4742 72.6283C47.4844 72.9286 47.6187 73.2131 47.8484 73.4214C48.0781 73.6296 48.3851 73.745 48.7038 73.7429C49.0225 73.7409 49.3277 73.6215 49.5544 73.4103ZM68.8178 34.1667C68.8007 34.0164 68.7524 33.8707 68.6755 33.738C68.5987 33.6053 68.4949 33.4881 68.3701 33.3932C68.2452 33.2983 68.1018 33.2275 67.9479 33.1849C67.794 33.1422 67.6327 33.1286 67.4732 33.1447C67.3138 33.1608 67.1592 33.2064 67.0184 33.2788C66.8776 33.3512 66.7533 33.449 66.6526 33.5667C66.5519 33.6843 66.4768 33.8195 66.4316 33.9646C66.3863 34.1096 66.3718 34.2616 66.3889 34.4119C66.4867 35.2871 66.538 36.1772 66.5392 37.0627C66.5392 40.0832 65.9625 43.0299 64.8226 45.8211C64.6113 46.3393 64.3987 46.8495 64.1861 47.355C64.0718 47.6374 64.0799 47.9508 64.2087 48.2277C64.3374 48.5045 64.5765 48.7225 64.8743 48.8347C65.1721 48.9468 65.5048 48.9441 65.8005 48.8272C66.0962 48.7102 66.3313 48.4883 66.4549 48.2094C66.6736 47.6947 66.8874 47.1753 67.1037 46.6468C68.3512 43.5881 68.9883 40.3385 68.9827 37.0616C68.9827 36.0943 68.9265 35.119 68.8178 34.1667Z" fill="#00FF66" fill-opacity="0.8"/>
<path d="M40.5806 14.8751C30.9226 14.8751 22.1101 20.5866 18.6538 29.0883C16.6782 33.958 15.4259 35.9352 11.9549 39.6661C11.8464 39.7794 11.7628 39.9119 11.7092 40.0559C11.6555 40.1999 11.6327 40.3526 11.6422 40.5049C11.6516 40.6573 11.6931 40.8064 11.7643 40.9435C11.8354 41.0807 11.9348 41.2031 12.0566 41.3037C12.1784 41.4043 12.3202 41.481 12.4738 41.5295C12.6273 41.578 12.7896 41.5972 12.9511 41.5861C13.1126 41.5749 13.2702 41.5336 13.4146 41.4645C13.559 41.3955 13.6875 41.3 13.7924 41.1838C17.4552 37.2468 18.8566 35.0347 20.9348 29.9128C24.0331 22.2966 31.9269 17.1782 40.5806 17.1782C55.3871 17.1782 65.5936 31.2036 60.2997 44.1731C56.3474 53.8723 47.5471 68.5449 38.3228 72.6547C38.0407 72.7915 37.826 73.0262 37.724 73.3094C37.6221 73.5925 37.6409 73.9019 37.7764 74.1723C37.912 74.4426 38.1537 74.6528 38.4506 74.7583C38.7474 74.8638 39.0762 74.8564 39.3674 74.7378C49.3699 70.2803 58.3437 55.3958 62.5807 44.9999C68.4818 30.5438 57.1146 14.8751 40.5806 14.8751Z" fill="#00FF66" fill-opacity="0.8"/>
<path d="M48.0516 60.8346C48.246 60.5903 48.3295 60.2832 48.2837 59.9809C48.2379 59.6785 48.0665 59.4057 47.8073 59.2225C47.548 59.0393 47.2222 58.9606 46.9014 59.0038C46.5807 59.047 46.2912 59.2085 46.0968 59.4528C42.627 63.8147 39.9147 66.9112 36.1187 68.5912C35.8257 68.7215 35.5994 68.956 35.4894 69.2433C35.3795 69.5306 35.3949 69.8473 35.5323 70.1239C35.8231 70.7031 36.5525 70.9438 37.1597 70.6766C41.4884 68.757 44.208 65.671 48.0516 60.8346ZM14.0502 49.2538C14.7502 47.5496 15.7606 45.987 17.052 44.6132C19.4906 42.0269 20.9995 40.1442 22.2628 38.1095C22.4209 37.8462 22.4628 37.5348 22.3793 37.2427C22.2958 36.9506 22.0937 36.7012 21.8166 36.5484C21.5396 36.3956 21.2099 36.3517 20.8988 36.4262C20.5876 36.5007 20.3201 36.6875 20.1541 36.9464C18.9787 38.8407 17.5505 40.6186 15.2243 43.084C13.744 44.6544 12.5742 46.462 11.7704 48.4213C11.6532 48.7062 11.661 49.0234 11.7919 49.3029C11.9229 49.5825 12.1663 49.8015 12.4686 49.9119C12.7709 50.0223 13.1074 50.015 13.404 49.8916C13.7006 49.7682 13.933 49.5388 14.0502 49.2538ZM36.3301 19.9213C36.1713 19.9536 36.021 20.0155 35.8879 20.1032C35.7548 20.191 35.6416 20.3029 35.555 20.4323C35.4683 20.5618 35.4099 20.7062 35.3831 20.8572C35.3564 21.0082 35.3619 21.1627 35.3992 21.3117C35.4366 21.4607 35.5051 21.6012 35.6007 21.7249C35.6964 21.8486 35.8172 21.9531 35.9562 22.0323C36.0952 22.1115 36.2496 22.1638 36.4103 22.1861C36.571 22.2084 36.7348 22.2002 36.8921 22.1621C39.1119 21.6694 41.4171 21.6248 43.6565 22.0313C45.8958 22.4377 48.0186 23.286 49.8855 24.5204C50.1513 24.6951 50.4799 24.7631 50.799 24.7095C51.1181 24.6558 51.4014 24.4849 51.5868 24.2343C51.7721 23.9837 51.8442 23.674 51.7873 23.3733C51.7304 23.0726 51.549 22.8055 51.2832 22.6308C49.1338 21.2116 46.6904 20.2365 44.1133 19.7696C41.5361 19.3026 38.8846 19.3543 36.3301 19.9213ZM31.4773 21.7096C27.6727 23.7259 24.7283 26.9283 23.1901 30.7225C22.8861 31.4719 22.5692 32.2167 22.2396 32.9564C22.1718 33.0966 22.1345 33.2481 22.1299 33.402C22.1253 33.556 22.1536 33.7092 22.2129 33.8527C22.2723 33.9962 22.3616 34.127 22.4755 34.2374C22.5895 34.3477 22.7258 34.4354 22.8763 34.4953C23.0269 34.5552 23.1886 34.5859 23.352 34.5858C23.5154 34.5857 23.6772 34.5547 23.8276 34.4947C23.9781 34.4346 24.1142 34.3467 24.228 34.2362C24.3418 34.1257 24.4309 33.9947 24.4901 33.8512C24.8089 33.1372 25.1327 32.3772 25.4724 31.547C26.8077 28.2514 29.3661 25.4716 32.6758 23.7178C32.9584 23.5682 33.1663 23.3189 33.2538 23.0248C33.3413 22.7306 33.3013 22.4158 33.1425 22.1495C32.9838 21.8832 32.7192 21.6872 32.4072 21.6047C32.0951 21.5222 31.7598 21.56 31.4773 21.7096ZM49.2062 57.3352C49.4787 57.5004 49.8097 57.5568 50.1263 57.492C50.443 57.4272 50.7193 57.2466 50.8946 56.9897C53.4237 53.2876 55.5495 49.3114 57.5825 44.4762C57.6961 44.1935 57.6872 43.88 57.5577 43.6034C57.4282 43.3268 57.1884 43.1093 56.8902 42.9979C56.5921 42.8865 56.2593 42.8901 55.9639 43.0079C55.6685 43.1257 55.4341 43.3482 55.3113 43.6275C53.3382 48.3188 51.2807 52.1695 48.8396 55.7438C48.6644 56.0006 48.6045 56.3126 48.6732 56.611C48.742 56.9095 48.9337 57.1699 49.2062 57.3352ZM57.6534 40.7879C57.9734 40.836 58.3005 40.7623 58.5629 40.5831C58.8252 40.4038 59.0013 40.1337 59.0523 39.8321C59.2062 38.9224 59.2844 37.9897 59.2844 37.0627C59.2844 33.1441 57.9161 29.2094 55.1036 25.9667C54.8985 25.7302 54.6021 25.5802 54.2796 25.5496C53.9571 25.5191 53.6349 25.6105 53.384 25.8038C53.133 25.9971 52.9738 26.2765 52.9414 26.5804C52.909 26.8844 53.006 27.188 53.2111 27.4246C55.6546 30.24 56.8397 33.6543 56.8397 37.0627C56.8397 37.87 56.7713 38.6795 56.6393 39.4694C56.5887 39.7708 56.667 40.0789 56.8571 40.3259C57.0473 40.5729 57.3337 40.7386 57.6534 40.7867V40.7879ZM29.2219 70.0433C28.8979 70.0433 28.5871 70.1646 28.358 70.3806C28.1289 70.5965 28.0002 70.8894 28.0002 71.1948C28.0002 71.5002 28.1289 71.7931 28.358 72.009C28.5871 72.225 28.8979 72.3463 29.2219 72.3463C30.2067 72.3463 31.2012 72.2703 32.1786 72.1229C32.337 72.099 32.4889 72.046 32.6256 71.9667C32.7623 71.8875 32.881 71.7837 32.9751 71.6612C33.0693 71.5387 33.1368 71.4 33.1741 71.2529C33.2113 71.1058 33.2174 70.9532 33.192 70.8039C33.1667 70.6545 33.1104 70.5114 33.0263 70.3826C32.9423 70.2537 32.8321 70.1418 32.7022 70.0531C32.5722 69.9644 32.425 69.9007 32.2689 69.8656C32.1128 69.8305 31.9509 69.8248 31.7925 69.8487C30.9434 69.9777 30.0784 70.0433 29.2219 70.0433Z" fill="#00FF66" fill-opacity="0.8"/>
<path d="M29.2183 67.7736C33.1707 67.7736 36.941 66.173 39.5617 63.384C46.252 56.2677 49.9026 50.5999 53.5154 41.724C56.2888 34.9128 52.5868 27.1274 45.0022 24.7127C37.9123 22.4546 30.3142 25.977 27.718 32.3634C25.2818 38.3604 23.3759 41.3175 18.8542 46.1251C13.9293 51.3564 14.2824 59.2708 19.6581 64.144C22.2231 66.4791 25.6522 67.7809 29.2183 67.7736ZM20.6819 47.6532C25.4346 42.6003 27.4382 39.4901 29.999 33.1867C32.1249 27.9623 38.3534 25.0282 44.219 26.8948C50.4353 28.8754 53.5313 35.2606 51.2344 40.8984C47.7389 49.4864 44.2056 54.9699 37.7315 61.8571C36.6644 62.9926 35.3538 63.9019 33.8863 64.5247C32.4188 65.1476 30.8278 65.47 29.2183 65.4706C26.2842 65.4761 23.4631 64.4048 21.3527 62.4835C16.925 58.4717 16.6306 51.9575 20.6819 47.6532Z" fill="#00FF66" fill-opacity="0.8"/>
<path d="M29.2183 63.1985H29.2794C30.5375 63.1898 31.7797 62.9318 32.9251 62.4412C34.0706 61.9506 35.0937 61.2384 35.9282 60.3508C37.9819 58.1664 39.6838 56.18 41.1328 54.2777C41.3217 54.0296 41.3983 53.7209 41.3457 53.4195C41.2932 53.1182 41.1157 52.8488 40.8524 52.6708C40.5892 52.4927 40.2616 52.4205 39.9419 52.4701C39.6221 52.5197 39.3364 52.6869 39.1475 52.935C35.58 57.6217 33.4675 60.5627 29.2183 60.8955C27.5397 60.8989 25.9257 60.2859 24.7186 59.1866C22.8126 57.4593 22.2359 54.9767 23.0105 52.8038C23.098 52.5183 23.0651 52.2121 22.9187 51.9489C22.7724 51.6857 22.5239 51.486 22.225 51.3914C21.9262 51.2967 21.6002 51.3145 21.3149 51.441C21.0297 51.5675 20.8073 51.7929 20.6941 52.0703C19.6312 55.055 20.4058 58.4715 23.024 60.846C24.6858 62.3592 26.9076 63.203 29.2183 63.1985ZM25.5005 49.4068C29.2293 45.2901 31.3001 42.1603 33.415 37.446C33.5414 37.1647 33.544 36.8477 33.4224 36.5646C33.3007 36.2814 33.0647 36.0555 32.7663 35.9364C32.4678 35.8173 32.1314 35.8148 31.831 35.9294C31.5307 36.0441 31.2909 36.2666 31.1645 36.5478C29.1584 41.0215 27.1877 43.9947 23.641 47.911C23.4305 48.1434 23.3266 48.4451 23.3522 48.7497C23.3777 49.0543 23.5306 49.3368 23.7772 49.5352C24.0238 49.7336 24.3439 49.8315 24.667 49.8074C24.9902 49.7833 25.29 49.6392 25.5005 49.4068ZM35.299 33.4813C36.1059 32.409 37.2584 31.6105 38.5853 31.2048C39.9121 30.799 41.3424 30.8075 42.6637 31.229C43.9559 31.6344 45.0823 32.4087 45.8867 33.4445C45.9813 33.5666 46.1006 33.67 46.2376 33.7486C46.3747 33.8273 46.5268 33.8798 46.6854 33.903C46.8439 33.9263 47.0058 33.9199 47.1617 33.8842C47.3176 33.8485 47.4645 33.7842 47.5941 33.695C47.7236 33.6057 47.8333 33.4933 47.9168 33.3642C48.0002 33.235 48.0559 33.0916 48.0806 32.9422C48.1052 32.7928 48.0984 32.6402 48.0606 32.4933C48.0227 32.3463 47.9545 32.2078 47.8598 32.0857C46.7585 30.666 45.2158 29.6044 43.4456 29.048C41.6273 28.468 39.659 28.4559 37.8328 29.0135C36.0066 29.5711 34.4197 30.6686 33.3075 32.1433C33.1344 32.3926 33.0704 32.6954 33.1288 32.9882C33.1872 33.281 33.3636 33.5412 33.6209 33.7142C33.8782 33.8873 34.1966 33.9598 34.5094 33.9166C34.8222 33.8734 35.1051 33.7167 35.299 33.4813ZM47.1329 37.0706C47.1321 37.8186 46.986 38.5602 46.7016 39.2585C45.0657 43.2773 43.5421 46.3334 41.7608 49.1684C41.5956 49.4312 41.5478 49.7451 41.6281 50.0411C41.7085 50.3371 41.9102 50.5908 42.189 50.7466C42.4679 50.9023 42.8009 50.9473 43.1149 50.8716C43.429 50.7959 43.6982 50.6058 43.8635 50.343C45.7181 47.3917 47.2966 44.2273 48.9826 40.083C49.3736 39.1261 49.5739 38.1139 49.5764 37.0775C49.5769 36.9263 49.5457 36.7765 49.4848 36.6366C49.4238 36.4967 49.3342 36.3695 49.2211 36.2623C49.108 36.155 48.9736 36.0698 48.8256 36.0115C48.6775 35.9532 48.5187 35.923 48.3583 35.9226H48.3546C48.0312 35.9226 47.721 36.0434 47.492 36.2586C47.263 36.4738 47.1338 36.7658 47.1329 37.0706Z" fill="#00FF66" fill-opacity="0.8"/>
<path d="M41.8903 33.3811C40.8949 33.0655 39.8088 33.1237 38.8578 33.5436C37.9069 33.9636 37.1643 34.7129 36.7846 35.6357C33.9196 42.683 31.426 46.5544 26.1138 52.2014C24.6611 53.7444 24.7649 56.0774 26.3887 57.5491C28.0869 59.0875 30.7687 58.9401 32.2946 57.3176C38.269 50.9589 41.2244 46.3736 44.4511 38.4443C44.6521 37.9545 44.7449 37.4312 44.7239 36.9064C44.7028 36.3817 44.5683 35.8665 44.3285 35.3925C44.0888 34.9184 43.7488 34.4955 43.3296 34.1497C42.9103 33.8038 42.4206 33.5422 41.8903 33.3811ZM42.1713 37.6186C39.0619 45.2532 36.2177 49.6692 30.4644 55.7895C29.8658 56.4286 28.7784 56.5207 28.0417 55.8506C27.7371 55.5779 27.5565 55.2046 27.5379 54.8091C27.5192 54.4135 27.6639 54.0266 27.9415 53.7295C33.4809 47.8418 36.0784 43.8069 39.0656 36.4591C39.3796 35.6864 40.3118 35.3156 41.0448 35.5413L41.1633 35.5804C42.0552 35.8649 42.5085 36.7918 42.1713 37.6186Z" fill="#00FF66" fill-opacity="0.8"/>
</svg>
