<svg width="298" height="244" viewBox="0 0 298 244" fill="none" xmlns="http://www.w3.org/2000/svg">
    <g clip-path="url(#clip0_292_2545)">
        <path fill-rule="evenodd" clip-rule="evenodd" d="M81.2323 2.86937C79.3621 1.03048 76.8442 0 74.2213 0H10C4.47715 0 0 4.47716 0 10V190C0 195.523 4.47716 200 10 200H288C293.523 200 298 195.523 298 190V30C298 24.4772 293.523 20 288 20H102.748C100.125 20 97.6072 18.9695 95.737 17.1306L81.2323 2.86937Z" fill="#230060"/>
        <rect x="2" y="24" width="294" height="174" rx="10" fill="#D9D9D9"/>
        <path fill-rule="evenodd" clip-rule="evenodd" d="M296 36C296 30.4772 291.523 26 286 26H102.798C100.552 26 98.3719 26.7559 96.6081 28.146L92.0199 31.7621C90.2561 33.1521 88.0757 33.908 85.83 33.908H12C6.47716 33.908 2 38.3852 2 43.9081V188C2 193.523 6.47716 198 12 198H286C291.523 198 296 193.523 296 188V36Z" fill="#2F006C"/>
    </g>
    <defs>
        <clipPath id="clip0_292_2545">
            <rect width="298" height="200" rx="10" fill="white"/>
        </clipPath>
    </defs>
</svg>
