<svg width="157" height="157" viewBox="0 0 157 157" fill="none" xmlns="http://www.w3.org/2000/svg">
    <rect width="157" height="157" rx="6" fill="#AAAAAA"/>
    <path d="M49.9961 85H48.502V78.9443H41.752V85H40.2578V72.1504H41.752V77.626H48.502V72.1504H49.9961V85ZM57.0186 75.1914C57.8389 75.1914 58.542 75.373 59.1279 75.7363C59.7139 76.0996 60.1621 76.6094 60.4727 77.2656C60.7832 77.916 60.9385 78.6777 60.9385 79.5508V80.4561H54.2852C54.3027 81.5869 54.584 82.4482 55.1289 83.04C55.6738 83.6318 56.4414 83.9277 57.4316 83.9277C58.041 83.9277 58.5801 83.8721 59.0488 83.7607C59.5176 83.6494 60.0039 83.4854 60.5078 83.2686V84.5518C60.0215 84.7686 59.5381 84.9268 59.0576 85.0264C58.583 85.126 58.0205 85.1758 57.3701 85.1758C56.4443 85.1758 55.6357 84.9883 54.9443 84.6133C54.2588 84.2324 53.7256 83.6758 53.3447 82.9434C52.9639 82.2109 52.7734 81.3145 52.7734 80.2539C52.7734 79.2168 52.9463 78.3203 53.292 77.5645C53.6436 76.8027 54.1357 76.2168 54.7686 75.8066C55.4072 75.3965 56.1572 75.1914 57.0186 75.1914ZM57.001 76.3867C56.2217 76.3867 55.6006 76.6416 55.1377 77.1514C54.6748 77.6611 54.3994 78.373 54.3115 79.2871H59.4092C59.4033 78.7129 59.3125 78.209 59.1367 77.7754C58.9668 77.3359 58.7061 76.9961 58.3545 76.7559C58.0029 76.5098 57.5518 76.3867 57.001 76.3867ZM69.9824 76.6064H66.8096V85H65.3682V76.6064H62.2393V75.3672H69.9824V76.6064ZM82.1641 71.3242V75.2266C83.1191 75.3086 83.9512 75.5576 84.6602 75.9736C85.3691 76.3838 85.9199 76.9434 86.3125 77.6523C86.7051 78.3613 86.9014 79.2051 86.9014 80.1836C86.9014 81.1445 86.7109 81.9824 86.3301 82.6973C85.9551 83.4121 85.4131 83.9775 84.7041 84.3936C84.001 84.8096 83.1543 85.0586 82.1641 85.1406V89.3242H80.7402V85.1406C79.7852 85.0703 78.9531 84.8301 78.2441 84.4199C77.541 84.0039 76.9932 83.4385 76.6006 82.7236C76.208 82.0088 76.0117 81.1621 76.0117 80.1836C76.0117 79.2051 76.1992 78.3613 76.5742 77.6523C76.9551 76.9375 77.5 76.375 78.209 75.9648C78.918 75.5488 79.7764 75.3027 80.7842 75.2266V71.3242H82.1641ZM80.7842 76.4395C80.04 76.5039 79.4277 76.6914 78.9473 77.002C78.4668 77.3125 78.1094 77.7344 77.875 78.2676C77.6465 78.8008 77.5322 79.4395 77.5322 80.1836C77.5322 80.9277 77.6494 81.5693 77.8838 82.1084C78.1182 82.6416 78.4756 83.0635 78.9561 83.374C79.4365 83.6846 80.0459 83.875 80.7842 83.9453V76.4395ZM82.1641 76.457V83.9453C82.9023 83.8691 83.5088 83.6729 83.9834 83.3564C84.4639 83.04 84.8184 82.6152 85.0469 82.082C85.2812 81.5488 85.3984 80.916 85.3984 80.1836C85.3984 79.0703 85.1318 78.2002 84.5986 77.5732C84.0654 76.9404 83.2539 76.5684 82.1641 76.457ZM97.7559 80.166C97.7559 80.957 97.6533 81.6631 97.4482 82.2842C97.2432 82.9053 96.9473 83.4297 96.5605 83.8574C96.1738 84.2852 95.7051 84.6133 95.1543 84.8418C94.6094 85.0645 93.9912 85.1758 93.2998 85.1758C92.6553 85.1758 92.0635 85.0645 91.5244 84.8418C90.9912 84.6133 90.5283 84.2852 90.1357 83.8574C89.749 83.4297 89.4473 82.9053 89.2305 82.2842C89.0195 81.6631 88.9141 80.957 88.9141 80.166C88.9141 79.1113 89.0928 78.2148 89.4502 77.4766C89.8076 76.7324 90.3174 76.167 90.9795 75.7803C91.6475 75.3877 92.4414 75.1914 93.3613 75.1914C94.2402 75.1914 95.0078 75.3877 95.6641 75.7803C96.3262 76.1729 96.8389 76.7412 97.2021 77.4854C97.5713 78.2236 97.7559 79.1172 97.7559 80.166ZM90.4258 80.166C90.4258 80.9395 90.5283 81.6104 90.7334 82.1787C90.9385 82.7471 91.2549 83.1865 91.6826 83.4971C92.1104 83.8076 92.6611 83.9629 93.335 83.9629C94.0029 83.9629 94.5508 83.8076 94.9785 83.4971C95.4121 83.1865 95.7314 82.7471 95.9365 82.1787C96.1416 81.6104 96.2441 80.9395 96.2441 80.166C96.2441 79.3984 96.1416 78.7363 95.9365 78.1797C95.7314 77.6172 95.415 77.1836 94.9873 76.8789C94.5596 76.5742 94.0059 76.4219 93.3262 76.4219C92.3242 76.4219 91.5889 76.7529 91.1201 77.415C90.6572 78.0771 90.4258 78.9941 90.4258 80.166ZM106.844 76.6064H103.671V85H102.229V76.6064H99.1006V75.3672H106.844V76.6064ZM117.057 80.166C117.057 80.957 116.954 81.6631 116.749 82.2842C116.544 82.9053 116.248 83.4297 115.861 83.8574C115.475 84.2852 115.006 84.6133 114.455 84.8418C113.91 85.0645 113.292 85.1758 112.601 85.1758C111.956 85.1758 111.364 85.0645 110.825 84.8418C110.292 84.6133 109.829 84.2852 109.437 83.8574C109.05 83.4297 108.748 82.9053 108.531 82.2842C108.32 81.6631 108.215 80.957 108.215 80.166C108.215 79.1113 108.394 78.2148 108.751 77.4766C109.108 76.7324 109.618 76.167 110.28 75.7803C110.948 75.3877 111.742 75.1914 112.662 75.1914C113.541 75.1914 114.309 75.3877 114.965 75.7803C115.627 76.1729 116.14 76.7412 116.503 77.4854C116.872 78.2236 117.057 79.1172 117.057 80.166ZM109.727 80.166C109.727 80.9395 109.829 81.6104 110.034 82.1787C110.239 82.7471 110.556 83.1865 110.983 83.4971C111.411 83.8076 111.962 83.9629 112.636 83.9629C113.304 83.9629 113.852 83.8076 114.279 83.4971C114.713 83.1865 115.032 82.7471 115.237 82.1787C115.442 81.6104 115.545 80.9395 115.545 80.166C115.545 79.3984 115.442 78.7363 115.237 78.1797C115.032 77.6172 114.716 77.1836 114.288 76.8789C113.86 76.5742 113.307 76.4219 112.627 76.4219C111.625 76.4219 110.89 76.7529 110.421 77.415C109.958 78.0771 109.727 78.9941 109.727 80.166Z" fill="#0D1117"/>
</svg>
