<svg width="298" height="244" viewBox="0 0 298 244" fill="none" xmlns="http://www.w3.org/2000/svg">
    <g clip-path="url(#clip0_364_859)">
        <path fill-rule="evenodd" clip-rule="evenodd" d="M81.2323 2.86937C79.3621 1.03048 76.8442 0 74.2213 0H10C4.47715 0 0 4.47716 0 10V190C0 195.523 4.47716 200 10 200H288C293.523 200 298 195.523 298 190V30C298 24.4772 293.523 20 288 20H102.748C100.125 20 97.6072 18.9695 95.737 17.1306L81.2323 2.86937Z" fill="#230060"/>
        <rect x="2" y="24" width="294" height="174" rx="10" fill="#D9D9D9"/>
        <path fill-rule="evenodd" clip-rule="evenodd" d="M296 36C296 30.4772 291.523 26 286 26H102.798C100.552 26 98.3719 26.7559 96.6081 28.146L92.0199 31.7621C90.2561 33.1521 88.0757 33.908 85.83 33.908H12C6.47716 33.908 2 38.3852 2 43.9081V188C2 193.523 6.47716 198 12 198H286C291.523 198 296 193.523 296 188V36Z" fill="#2F006C"/>
        <path d="M179 115.75H119C116.95 115.75 115.25 114.05 115.25 112C115.25 109.95 116.95 108.25 119 108.25H179C181.05 108.25 182.75 109.95 182.75 112C182.75 114.05 181.05 115.75 179 115.75Z" fill="white"/>
        <path d="M149 145.75C146.95 145.75 145.25 144.05 145.25 142V82C145.25 79.95 146.95 78.25 149 78.25C151.05 78.25 152.75 79.95 152.75 82V142C152.75 144.05 151.05 145.75 149 145.75Z" fill="white"/>
    </g>
    <defs>
        <clipPath id="clip0_364_859">
            <rect width="298" height="200" rx="10" fill="white"/>
        </clipPath>
    </defs>
</svg>
