<svg width="238" height="145" viewBox="0 0 238 145" fill="none" xmlns="http://www.w3.org/2000/svg">
<path fill-rule="evenodd" clip-rule="evenodd" d="M140.728 27.4666C137.379 11.8212 122.028 0 103.595 0C86.2051 0 71.5567 10.5227 67.1438 24.8517C59.77 18.269 45.1621 21.775 34.1142 32.9105C27.3792 39.6988 23.4899 47.7876 22.9841 54.7274C17.5296 55.0102 11.7918 59.387 8.77359 66.166C6.4278 71.4347 6.25963 76.9533 7.91594 81.1426C3.69898 83.6279 0.804939 88.751 0.804939 94.6676C0.804939 102.496 5.87086 108.935 12.364 109.713C12.6679 109.702 12.9702 109.657 13.2647 109.578C13.7855 109.438 14.2711 109.195 14.6915 108.864C15.1119 108.532 15.4581 108.119 15.7087 107.651C15.9593 107.182 16.109 106.668 16.1485 106.139C16.1879 105.611 16.1164 105.08 15.9382 104.579C15.7601 104.078 15.4791 103.618 15.1127 103.227C14.8695 102.968 14.5922 102.743 14.2887 102.558C14.2197 102.516 14.1602 102.462 14.1126 102.4C11.1742 100.883 9.20761 98.1131 9.20761 94.9481C9.20761 90.1528 13.7219 86.2655 19.2906 86.2655C19.8112 86.2655 20.3225 86.2995 20.8218 86.365C17.834 83.7451 15.9296 79.7802 15.9296 75.3427C15.9296 67.4538 21.9487 61.0585 29.3736 61.0585C30.6555 61.0585 31.8955 61.2491 33.0698 61.6051C32.0328 54.9263 34.1202 47.279 39.3299 41.032C48.0102 30.6233 62.0716 28.0435 70.7369 35.2699C71.2519 35.6994 71.7362 36.1538 72.1898 36.6309C74.1132 21.0308 87.1899 8.96287 103.035 8.96287C120.206 8.96287 134.125 23.1328 134.125 40.6122C134.125 41.5295 134.086 42.4377 134.011 43.3352C142.709 36.2467 152.569 33.8816 159.565 38.1955C165.773 42.0239 168.295 50.2305 167.086 59.6858C174.23 52.574 185.777 51.1129 194.988 56.7925C203.437 62.0025 207.4 71.6674 205.569 80.6219C207.964 78.2312 211.335 76.743 215.069 76.743C222.339 76.743 228.233 82.3859 228.233 89.3468C228.233 96.3076 223.459 101.39 216.189 101.39L195.084 101.39H74.6224C72.8691 96.1801 67.9444 92.4275 62.1431 92.4275C54.8729 92.4275 48.9792 98.3211 48.9792 105.591C48.9792 112.862 54.8729 118.755 62.1431 118.755C67.7341 118.755 72.511 115.27 74.4194 110.353H219.27L219.308 110.353H219.444C219.844 110.353 220.244 110.312 220.632 110.218C230.465 107.822 237.195 99.511 237.195 89.6267C237.195 77.8706 226.912 68.3404 214.228 68.3404C213.446 68.3404 212.672 68.3767 211.909 68.4475C211.615 60.3256 206.991 52.3148 199.052 47.7309C190.99 43.0767 181.578 43.1495 174.352 47.132C173.109 40.1737 168.72 33.6315 161.842 29.6608C155.058 25.744 147.318 25.175 140.728 27.4666ZM76.5838 57.6048L70.7569 57.5959L54.3701 74.5648C56.6804 79.3786 55.9058 85.3138 51.9895 89.3692C46.9546 94.5831 38.6334 94.7156 33.4036 89.6653C28.1739 84.615 28.0159 76.2943 33.0509 71.0804C37.0249 66.9652 43.0461 66.0155 47.9786 68.2812L65.6221 50.0109C66.334 49.2736 67.2377 48.8332 68.1786 48.6922L68.1785 48.6435L68.7204 48.6443C68.8088 48.6418 68.8972 48.642 68.9856 48.6447L153.758 48.7738C156.23 48.7776 158.236 50.7838 158.24 53.2549C158.243 55.726 156.243 57.7261 153.772 57.7224L76.8027 57.6051C76.8992 57.7592 76.997 57.9124 77.096 58.0646C76.9236 57.9128 76.7529 57.7595 76.5838 57.6048ZM62.0031 112.314C58.368 112.314 55.4212 109.367 55.4212 105.732C55.4212 102.097 58.368 99.1498 62.0031 99.1498C65.6382 99.1498 68.5851 102.097 68.5851 105.732C68.5851 109.367 65.6382 112.314 62.0031 112.314ZM37.9658 85.1428C40.5807 87.668 44.7413 87.6017 47.2588 84.9948C49.7762 82.3879 49.6973 78.2275 47.0824 75.7023C44.4675 73.1772 40.3069 73.2435 37.7895 75.8504C35.272 78.4573 35.3509 82.6177 37.9658 85.1428ZM102.475 94.1073C95.205 94.1073 89.3113 88.2136 89.3113 80.9434C89.3113 73.6732 95.205 67.7795 102.475 67.7795C108.276 67.7795 113.201 71.5318 114.954 76.7417H182.859C185.334 76.7417 187.34 78.7481 187.34 81.2231C187.34 83.698 185.334 85.7044 182.859 85.7044H114.752C112.844 90.6214 108.066 94.1073 102.475 94.1073ZM102.335 87.665C98.7001 87.665 95.7533 84.7182 95.7533 81.0831C95.7533 77.448 98.7001 74.5011 102.335 74.5011C105.97 74.5011 108.917 77.448 108.917 81.0831C108.917 84.7182 105.97 87.665 102.335 87.665ZM169.695 144.522C176.965 144.522 182.859 138.628 182.859 131.358C182.859 124.088 176.965 118.194 169.695 118.194C163.894 118.194 158.969 121.947 157.216 127.157H31.0541C28.5791 127.157 26.5728 129.163 26.5728 131.638C26.5728 134.113 28.5791 136.12 31.0541 136.12H157.419C159.327 141.036 164.104 144.522 169.695 144.522ZM169.835 138.08C173.47 138.08 176.417 135.133 176.417 131.498C176.417 127.863 173.47 124.916 169.835 124.916C166.2 124.916 163.253 127.863 163.253 131.498C163.253 135.133 166.2 138.08 169.835 138.08Z" fill="#00FF66" fill-opacity="0.8"/>
</svg>
